<?xml version="1.0"?>
<svg xmlns="http://www.w3.org/2000/svg" xmlns:xlink="http://www.w3.org/1999/xlink" version="1.1" id="Capa_1" x="0px" y="0px" viewBox="0 0 412.482 412.482" style="enable-background:new 0 0 412.482 412.482;" xml:space="preserve" width="512px" height="512px" class=""><g><path d="M396.821,67.436c-1.411-1.438-3.34-2.248-5.354-2.248h-84.724c-0.188-35.975-29.504-65.187-65.523-65.187  c-12.855,0-24.846,3.735-34.976,10.156C196.113,3.736,184.12,0,171.264,0c-17.506,0-33.962,6.815-46.336,19.189  c-12.299,12.299-19.101,28.624-19.191,46H21.015c-2.01,0-3.936,0.807-5.346,2.24c-1.41,1.433-2.186,3.372-2.153,5.382l5.381,332.293  c0.066,4.094,3.404,7.379,7.499,7.379h358.71c4.086,0,7.42-3.271,7.499-7.356l6.36-332.293  C399.004,70.819,398.231,68.874,396.821,67.436z M291.743,65.189h-54.952c-0.091-17.374-6.983-33.159-18.137-44.849  c6.797-3.408,14.458-5.338,22.565-5.338C268.967,15.002,291.555,37.484,291.743,65.189z M206.243,29.114  c9.499,9.127,15.451,21.914,15.547,36.074h-31.095C190.792,51.028,196.744,38.241,206.243,29.114z M135.535,29.795  C145.076,20.254,157.765,15,171.264,15c8.109,0,15.771,1.931,22.569,5.339c-11.154,11.69-18.047,27.475-18.137,44.849h-54.958  C120.827,51.819,126.069,39.261,135.535,29.795z M28.638,80.189h54.712l-5.138,317.293H33.776L28.638,80.189z M377.749,397.482  H321.51H93.213l5.138-317.293h77.336v52.917c0,4.142,3.358,7.5,7.5,7.5s7.5-3.358,7.5-7.5V80.189h101.064v52.917  c0,4.142,3.358,7.5,7.5,7.5s7.5-3.358,7.5-7.5V80.189h77.07L377.749,397.482z" data-original="#000000" class="active-path" data-old_color="#E8E2E2" fill="#E8E5E5"/></g> </svg>
