<?xml version="1.0"?>
<svg xmlns="http://www.w3.org/2000/svg" xmlns:xlink="http://www.w3.org/1999/xlink" version="1.1" id="Capa_1" x="0px" y="0px" viewBox="0 0 330.948 330.948" style="enable-background:new 0 0 330.948 330.948;" xml:space="preserve" width="512px" height="512px" class=""><g><g transform="translate(1 1)">
	<g>
		<path style="fill:#F4F3F3" d="M247.221,4.495H103.792c-12.186,0-22.066,9.88-22.066,22.066v121.363    c0,12.186,9.88,22.066,22.066,22.066h66.198v44.132l44.132-44.132h33.099c12.186,0,22.066-9.88,22.066-22.066V26.561    C269.287,14.375,259.407,4.495,247.221,4.495" data-original="#FFE100" class="active-path" data-old_color="#EBEBEB"/>
		<path style="fill:#F4F3F3" d="M114.825,236.188h22.066V169.99h-33.099c-12.186,0-22.066-9.88-22.066-22.066V70.693H26.561    c-12.186,0-22.066,9.88-22.066,22.066v121.363c0,12.186,9.88,22.066,22.066,22.066h44.132v44.132L114.825,236.188z" data-original="#FFE100" class="active-path" data-old_color="#EBEBEB"/>
	</g>
	<path style="fill:#FFFFFF;" d="M21.044,214.122V92.759c0-12.186,9.88-22.066,22.066-22.066H26.561   c-12.186,0-22.066,9.88-22.066,22.066v121.363c0,12.186,9.88,22.066,22.066,22.066H43.11   C30.924,236.188,21.044,226.308,21.044,214.122" data-original="#FFFFFF" class=""/>
	<path style="fill:#F4F3F3" d="M302.386,114.825h-33.099v33.099c0,12.186-9.88,22.066-22.066,22.066h-33.099l-44.132,44.132V169.99   h-33.099v88.264c0,12.186,9.88,22.066,22.066,22.066h55.165v44.132l44.132-44.132h44.132c12.186,0,22.066-9.88,22.066-22.066   V136.891C324.452,124.705,314.572,114.825,302.386,114.825" data-original="#FFE100" class="active-path" data-old_color="#EBEBEB"/>
	<g>
		<path style="fill:#E6E6E6" d="M247.221,4.495h-16.549c12.186,0,22.066,9.88,22.066,22.066v121.363    c0,12.186-9.88,22.066-22.066,22.066h16.549c12.186,0,22.066-9.88,22.066-22.066V26.561    C269.287,14.375,259.407,4.495,247.221,4.495" data-original="#FFA800" class="" data-old_color="#E6E3E3"/>
		<path style="fill:#E6E6E6" d="M302.386,114.825h-16.549c12.186,0,22.066,9.88,22.066,22.066v121.363    c0,12.186-9.88,22.066-22.066,22.066h16.549c12.186,0,22.066-9.88,22.066-22.066V136.891    C324.452,124.705,314.572,114.825,302.386,114.825" data-original="#FFA800" class="" data-old_color="#E6E3E3"/>
	</g>
	<path d="M169.989,219.617c-0.708,0-1.422-0.136-2.102-0.418c-2.053-0.85-3.392-2.854-3.392-5.077v-38.637h-60.703   c-15.197,0-27.561-12.364-27.561-27.561V26.561C76.231,11.364,88.595-1,103.792-1h143.429c15.197,0,27.561,12.364,27.561,27.561   v121.363c0,15.197-12.364,27.561-27.561,27.561h-30.823l-42.522,42.523C172.825,219.059,171.419,219.617,169.989,219.617z    M103.792,9.99c-9.137,0-16.571,7.434-16.571,16.571v121.363c0,9.137,7.434,16.571,16.571,16.571h66.198   c3.035,0,5.495,2.46,5.495,5.495v30.866l34.751-34.752c1.031-1.03,2.429-1.609,3.886-1.609h33.099   c9.137,0,16.571-7.434,16.571-16.571V26.561c0-9.137-7.434-16.571-16.571-16.571H103.792z" data-original="#000000" class="" style="fill:#E1E1E1" data-old_color="#E1DFDF"/>
	<path d="M70.692,285.815c-0.708,0-1.422-0.136-2.102-0.418c-2.053-0.85-3.392-2.854-3.392-5.077v-38.637H26.561   C11.364,241.683-1,229.32-1,214.122V92.759c0-15.197,12.364-27.561,27.561-27.561h55.165c3.035,0,5.495,2.46,5.495,5.495v77.231   c0,9.137,7.434,16.571,16.571,16.571h33.099c3.035,0,5.495,2.46,5.495,5.495v66.198c0,3.035-2.46,5.495-5.495,5.495h-19.79   l-42.523,42.522C73.527,285.257,72.122,285.815,70.692,285.815z M26.561,76.188c-9.137,0-16.571,7.434-16.571,16.571v121.363   c0,9.138,7.434,16.571,16.571,16.571h44.132c3.035,0,5.495,2.46,5.495,5.495v30.866l34.751-34.752   c1.03-1.03,2.428-1.609,3.885-1.609h16.571v-55.208h-27.604c-15.197,0-27.561-12.364-27.561-27.561V76.188H26.561z" data-original="#000000" class="" style="fill:#E1E1E1" data-old_color="#E1DFDF"/>
	<path d="M214.121,329.948c-0.708,0-1.422-0.136-2.102-0.418c-2.053-0.85-3.392-2.854-3.392-5.077v-38.637h-49.67   c-15.197,0-27.561-12.364-27.561-27.561V169.99c0-3.035,2.46-5.495,5.495-5.495h33.099c3.035,0,5.495,2.46,5.495,5.495v30.866   l34.751-34.752c1.031-1.03,2.429-1.609,3.886-1.609h33.099c9.137,0,16.571-7.434,16.571-16.571v-33.099   c0-3.035,2.46-5.495,5.495-5.495h33.099c15.198,0,27.561,12.364,27.561,27.561v121.363c0,15.198-12.364,27.561-27.561,27.561   h-41.856l-42.522,42.523C216.956,329.389,215.551,329.948,214.121,329.948z M142.386,175.485v82.769   c0,9.138,7.434,16.571,16.571,16.571h55.165c3.035,0,5.495,2.46,5.495,5.495v30.866l34.751-34.752   c1.031-1.03,2.429-1.609,3.886-1.609h44.132c9.138,0,16.571-7.434,16.571-16.571V136.891c0-9.137-7.434-16.571-16.571-16.571   h-27.604v27.604c0,15.197-12.364,27.561-27.561,27.561h-30.823l-42.522,42.523c-1.572,1.572-3.934,2.043-5.989,1.191   c-2.053-0.85-3.392-2.854-3.392-5.077v-38.637H142.386z" data-original="#000000" class="" style="fill:#E1E1E1" data-old_color="#E1DFDF"/>
	<path d="M203.089,43.089h-77.231c-3.035,0-5.495-2.46-5.495-5.495s2.46-5.495,5.495-5.495h77.231c3.035,0,5.495,2.46,5.495,5.495   S206.124,43.089,203.089,43.089z" data-original="#000000" class="" style="fill:#E1E1E1" data-old_color="#E1DFDF"/>
	<path d="M225.155,76.188h-99.297c-3.035,0-5.495-2.46-5.495-5.495c0-3.035,2.46-5.495,5.495-5.495h99.297   c3.035,0,5.495,2.46,5.495,5.495C230.65,73.728,228.189,76.188,225.155,76.188z" data-original="#000000" class="" style="fill:#E1E1E1" data-old_color="#E1DFDF"/>
	<path d="M169.99,109.287h-44.132c-3.035,0-5.495-2.46-5.495-5.495s2.46-5.495,5.495-5.495h44.132c3.035,0,5.495,2.46,5.495,5.495   S173.024,109.287,169.99,109.287z" data-original="#000000" class="" style="fill:#E1E1E1" data-old_color="#E1DFDF"/>
	<path d="M214.122,142.386h-88.264c-3.035,0-5.495-2.46-5.495-5.495c0-3.035,2.46-5.495,5.495-5.495h88.264   c3.035,0,5.495,2.46,5.495,5.495C219.616,139.926,217.157,142.386,214.122,142.386z" data-original="#000000" class="" style="fill:#E1E1E1" data-old_color="#E1DFDF"/>
	<path d="M59.66,109.287H48.627c-3.035,0-5.495-2.46-5.495-5.495s2.46-5.495,5.495-5.495H59.66c3.035,0,5.495,2.46,5.495,5.495   S62.695,109.287,59.66,109.287z" data-original="#000000" class="" style="fill:#E1E1E1" data-old_color="#E1DFDF"/>
	<path d="M59.66,142.386H48.627c-3.035,0-5.495-2.46-5.495-5.495c0-3.035,2.46-5.495,5.495-5.495H59.66   c3.035,0,5.495,2.46,5.495,5.495C65.155,139.926,62.695,142.386,59.66,142.386z" data-original="#000000" class="" style="fill:#E1E1E1" data-old_color="#E1DFDF"/>
	<path d="M70.693,175.485H48.627c-3.035,0-5.495-2.46-5.495-5.495s2.46-5.495,5.495-5.495h22.066c3.035,0,5.495,2.46,5.495,5.495   S73.727,175.485,70.693,175.485z" data-original="#000000" class="" style="fill:#E1E1E1" data-old_color="#E1DFDF"/>
	<path d="M114.825,208.584H48.627c-3.035,0-5.495-2.46-5.495-5.495s2.46-5.495,5.495-5.495h66.198c3.035,0,5.495,2.46,5.495,5.495   S117.86,208.584,114.825,208.584z" data-original="#000000" class="" style="fill:#E1E1E1" data-old_color="#E1DFDF"/>
	<path d="M230.671,219.617h-33.098c-3.035,0-5.495-2.46-5.495-5.495s2.46-5.495,5.495-5.495h33.098c3.035,0,5.495,2.46,5.495,5.495   S233.706,219.617,230.671,219.617z" data-original="#000000" class="" style="fill:#E1E1E1" data-old_color="#E1DFDF"/>
	<path d="M274.804,252.716h-77.231c-3.035,0-5.495-2.46-5.495-5.495c0-3.035,2.46-5.495,5.495-5.495h77.231   c3.035,0,5.495,2.46,5.495,5.495C280.299,250.256,277.838,252.716,274.804,252.716z" data-original="#000000" class="" style="fill:#E1E1E1" data-old_color="#E1DFDF"/>
</g></g> </svg>
