<?xml version="1.0" encoding="iso-8859-1"?>
<!-- Generator: Adobe Illustrator 19.0.0, SVG Export Plug-In . SVG Version: 6.00 Build 0)  -->
<svg version="1.1" id="Capa_1" xmlns="http://www.w3.org/2000/svg" xmlns:xlink="http://www.w3.org/1999/xlink" x="0px" y="0px"
	 viewBox="0 0 512 512" style="enable-background:new 0 0 512 512;" xml:space="preserve">
<g>
	<g>
		<circle cx="227" cy="437" r="15"/>
	</g>
</g>
<g>
	<g>
		<circle cx="437" cy="437" r="15"/>
	</g>
</g>
<g>
	<g>
		<path d="M512,287V45c0-24.813-20.187-45-45-45H45C20.187,0,0,20.187,0,45v242c0,24.813,20.187,45,45,45h226.212l-23.44,32.949
			C241.17,363.043,234.207,362,227,362c-41.355,0-75,33.645-75,75c0,41.355,33.645,75,75,75c39.606,0,72.119-30.865,74.8-69.802
			l31.681-43.035l28.692,42.668C364.673,480.941,397.269,512,437,512c41.355,0,75-33.645,75-75c0-41.355-33.645-75-75-75
			c-7.031,0-13.83,0.994-20.288,2.811L395.553,332H467C491.813,332,512,311.813,512,287z M227,482c-24.813,0-45-20.187-45-45
			s20.187-45,45-45c24.695,0,45,20.082,45,45C272,461.813,251.813,482,227,482z M371.061,401.288l-18.687-27.79l18.254-24.796
			l19.317,29.955C382.26,384.867,375.813,392.55,371.061,401.288z M437,392c24.813,0,45,20.187,45,45s-20.187,45-45,45
			c-24.802,0-44.982-20.17-44.999-44.968c0-0.013,0-0.027,0-0.04C392.005,411.915,412.477,392,437,392z M293.647,402.669
			c-4.714-9.115-11.228-17.154-19.091-23.618l130.188-182.999l4.469,8.933c6.629,13.25,6.324,28.799-0.78,41.758L293.647,402.669z
			 M434.088,262.33c12.473-21.828,13.204-48.283,1.955-70.768l-15.638-31.256c-2.355-4.709-7.008-7.838-12.257-8.244
			c-5.255-0.408-10.328,1.97-13.38,6.26L362,204.383V197c0-8.284-6.716-15-15-15s-15,6.716-15,15v21.562
			c0,6.487,4.126,11.996,9.891,14.088L292.554,302H45c-8.271,0-15-6.729-15-15V45c0-8.271,6.729-15,15-15h287v15
			c0,8.284,6.716,15,15,15s15-6.716,15-15V30h105c8.271,0,15,6.729,15,15v242c0,8.271-6.729,15-15,15h-61.992
			C435.404,260.71,433.474,263.403,434.088,262.33z"/>
	</g>
</g>
<g>
	<g>
		<path d="M347,92c-8.284,0-15,6.716-15,15v30c0,8.284,6.716,15,15,15s15-6.716,15-15v-30C362,98.716,355.284,92,347,92z"/>
	</g>
</g>
<g>
	<g>
		<path d="M107,62c-24.813,0-45,20.187-45,45s20.187,45,45,45s45-20.187,45-45S131.813,62,107,62z M107,122c-8.271,0-15-6.729-15-15
			s6.729-15,15-15s15,6.729,15,15S115.271,122,107,122z"/>
	</g>
</g>
<g>
	<g>
		<path d="M227,182c-24.813,0-45,20.187-45,45s20.187,45,45,45s45-20.187,45-45S251.813,182,227,182z M227,242
			c-8.271,0-15-6.729-15-15s6.729-15,15-15s15,6.729,15,15S235.271,242,227,242z"/>
	</g>
</g>
<g>
	<g>
		<path d="M235.32,64.519c-6.891-4.595-16.205-2.733-20.801,4.16l-120,180c-4.595,6.893-2.732,16.206,4.161,20.801
			c6.891,4.595,16.205,2.734,20.801-4.16l120-180C244.076,78.428,242.213,69.115,235.32,64.519z"/>
	</g>
</g>
<g>
</g>
<g>
</g>
<g>
</g>
<g>
</g>
<g>
</g>
<g>
</g>
<g>
</g>
<g>
</g>
<g>
</g>
<g>
</g>
<g>
</g>
<g>
</g>
<g>
</g>
<g>
</g>
<g>
</g>
</svg>
