<?xml version="1.0" encoding="iso-8859-1"?>
<!-- Generator: Adobe Illustrator 19.0.0, SVG Export Plug-In . SVG Version: 6.00 Build 0)  -->
<svg xmlns="http://www.w3.org/2000/svg" xmlns:xlink="http://www.w3.org/1999/xlink" version="1.1" id="Layer_1" x="0px" y="0px" viewBox="0 0 444.402 444.402" style="enable-background:new 0 0 444.402 444.402;" xml:space="preserve" width="512px" height="512px">
<g>
	<g>
		<g>
			<polygon points="264.581,255.539 277.77,263.151 285.45,249.853 272.261,242.241    " fill="#999999"/>
			
				<rect x="346.533" y="290.708" transform="matrix(-0.8661 -0.4999 0.4999 -0.8661 511.6761 733.8608)" width="15.225" height="15.357" fill="#999999"/>
			
				<rect x="372.904" y="305.939" transform="matrix(-0.8661 -0.4999 0.4999 -0.8661 553.2724 775.4656)" width="15.225" height="15.357" fill="#999999"/>
			
				<rect x="241.027" y="229.787" transform="matrix(-0.8661 -0.4999 0.4999 -0.8661 345.2535 567.4308)" width="15.225" height="15.357" fill="#999999"/>
			<rect x="293.78" y="260.248" transform="matrix(-0.8661 -0.5 0.5 -0.8661 428.4641 650.646)" width="15.225" height="15.357" fill="#999999"/>
			<polygon points="317.331,286 330.52,293.612 338.2,280.313 325.011,272.701    " fill="#999999"/>
			<polygon points="79.828,295.537 87.508,308.835 100.697,301.223 93.017,287.925    " fill="#999999"/>
			
				<rect x="188.157" y="229.784" transform="matrix(0.8661 -0.4999 0.4999 0.8661 -92.4966 129.682)" width="15.225" height="15.357" fill="#999999"/>
			<polygon points="158.959,249.849 166.639,263.148 179.828,255.536 172.148,242.237    " fill="#999999"/>
			
				<rect x="56.209" y="305.994" transform="matrix(-0.5001 -0.866 0.866 -0.5001 -175.7357 525.7705)" width="15.357" height="15.23" fill="#999999"/>
			
				<rect x="135.336" y="260.308" transform="matrix(-0.5003 -0.8659 0.8659 -0.5003 -17.422 525.7872)" width="15.358" height="15.227" fill="#999999"/>
			
				<rect x="108.96" y="275.537" transform="matrix(-0.5001 -0.866 0.866 -0.5001 -70.2267 525.7597)" width="15.357" height="15.225" fill="#999999"/>
			<rect x="214.525" y="62.232" width="15.36" height="15.23" fill="#999999"/>
			<rect x="214.525" y="184.061" width="15.36" height="15.23" fill="#999999"/>
			<rect x="214.525" y="153.603" width="15.36" height="15.23" fill="#999999"/>
			<rect x="214.525" y="31.775" width="15.36" height="15.23" fill="#999999"/>
			<rect x="214.525" y="92.693" width="15.36" height="15.227" fill="#999999"/>
			<rect x="214.525" y="123.146" width="15.36" height="15.23" fill="#999999"/>
			<path d="M222.205,0L29.771,111.101v222.201l192.433,111.101l192.427-111.094V111.107L222.205,0z M45.131,128.835l169.39,97.798     v195.598l-169.39-97.797V128.835z M391.593,115.542l-169.388,97.791L52.81,115.535l169.395-97.8L391.593,115.542z      M229.881,226.637l169.39-97.796v195.599l-169.39,97.794V226.637z" fill="#999999"/>
		</g>
	</g>
</g>
<g>
</g>
<g>
</g>
<g>
</g>
<g>
</g>
<g>
</g>
<g>
</g>
<g>
</g>
<g>
</g>
<g>
</g>
<g>
</g>
<g>
</g>
<g>
</g>
<g>
</g>
<g>
</g>
<g>
</g>
</svg>
