<?xml version="1.0" encoding="iso-8859-1"?>
<!-- Generator: Adobe Illustrator 19.0.0, SVG Export Plug-In . SVG Version: 6.00 Build 0)  -->
<svg version="1.1" id="Capa_1" xmlns="http://www.w3.org/2000/svg" xmlns:xlink="http://www.w3.org/1999/xlink" x="0px" y="0px"
	 viewBox="0 0 512.004 512.004" style="enable-background:new 0 0 512.004 512.004;" xml:space="preserve">
<rect x="423.378" y="27.91" transform="matrix(-0.7071 0.7071 -0.7071 -0.7071 831.11 -258.3934)" style="fill:#78777F;" width="91.385" height="30.044"/>
<rect x="467.022" y="2.622" transform="matrix(-0.7071 -0.7071 0.7071 -0.7071 775.761 417.9594)" style="fill:#3C3A41;" width="14.842" height="91.385"/>
<polygon style="fill:#FF633E;" points="474.236,259.906 222.138,512.004 0.002,289.868 252.1,37.77 460.038,51.969 460.052,52.21 
	"/>
<polygon style="fill:#FF3100;" points="474.236,259.906 222.138,512.004 111.198,401.064 460.052,52.21 "/>
<g>
	<path style="fill:#EFE6DE;" d="M217.159,353.837c2.273-3.689,3.789-7.513,4.561-11.486c0.772-3.959,0.538-8.002-0.694-12.124
		c-1.225-4.114-3.81-8.144-7.741-12.074c-3.074-3.074-6.147-5.227-9.221-6.459c-0.871-0.347-1.742-0.637-2.634-0.864
		c-2.223-0.595-4.504-0.807-6.819-0.659c-3.229,0.212-6.607,0.984-10.148,2.301c-3.533,1.324-7.266,3.031-11.203,5.128
		c-2.521,1.289-4.752,2.472-6.685,3.54c-1.933,1.084-3.654,1.912-5.163,2.5c-1.508,0.574-2.811,0.871-3.916,0.871
		c-1.112-0.007-2.096-0.425-2.96-1.289c-1.169-1.169-1.515-2.479-1.063-3.923c0.468-1.444,1.494-2.967,3.095-4.568
		c1.969-1.969,4.305-3.654,7.01-5.071c2.698-1.409,5.255-2.578,7.655-3.505c2.825-1.098,5.708-2.025,8.668-2.762l-7.103-22.598
		c-2.216,0.743-4.66,1.614-7.33,2.627c-2.677,1.02-5.431,2.23-8.25,3.647c-2.833,1.416-5.615,3.023-8.349,4.836
		c-2.74,1.82-5.304,3.93-7.697,6.324c-3.258,3.258-5.878,6.826-7.847,10.693c-1.962,3.874-3.166,7.868-3.59,11.989
		c-0.432,4.114,0.078,8.222,1.522,12.315c1.437,4.086,3.98,7.946,7.605,11.571c2.394,2.394,4.844,4.192,7.329,5.389
		c2.493,1.204,5.134,1.848,7.932,1.941c2.11,0.071,4.333-0.156,6.685-0.68c0.772-0.177,1.551-0.376,2.352-0.609
		c3.229-0.948,6.777-2.387,10.651-4.291c2.648-1.289,5.085-2.564,7.337-3.824c2.237-1.261,4.284-2.315,6.126-3.18
		c1.849-0.857,3.477-1.353,4.893-1.48c1.409-0.12,2.578,0.283,3.498,1.204c0.864,0.864,1.169,1.934,0.927,3.222
		c-0.247,1.296-1.353,2.924-3.321,4.893c-2.578,2.578-5.488,4.752-8.717,6.494c-3.229,1.757-6.281,3.152-9.171,4.199
		c-3.385,1.289-6.826,2.336-10.332,3.137l8.023,23.518c3.138-0.8,6.316-1.898,9.539-3.279c3.237-1.381,6.431-2.974,9.595-4.794
		c3.173-1.813,6.189-3.796,9.079-5.949c2.889-2.153,5.538-4.434,7.932-6.827C212.231,360.876,214.879,357.519,217.159,353.837z"/>
	<path style="fill:#EFE6DE;" d="M277.375,294.075l18.256-18.256l-39.848-19.34l-48.304-23.447l-16.415,16.415l23.391,48.36
		l19.298,39.89l18.355-18.355l-8.944-16.692l17.428-17.428L277.375,294.075z M233.844,287.992l-3.35-6.224l-10.849-20.154
		l19.942,11.061l6.154,3.42L233.844,287.992z"/>
	<path style="fill:#EFE6DE;" d="M333.079,207.028l-29.693,29.693l-49.798-49.798l-17.987,17.988l65.469,65.469l47.681-47.681
		L333.079,207.028z"/>
	<path style="fill:#EFE6DE;" d="M386.007,154.099l-28.681,28.681l-10.332-10.332l23.794-23.794l-14.567-14.567l-23.794,23.794
		l-9.228-9.228l27.851-27.852l-15.671-15.671l-45.832,45.832l65.469,65.469l46.66-46.66L386.007,154.099z"/>
</g>
<g>
	<polygon style="fill:#DECCBC;" points="355.017,216.432 325.423,186.838 367.198,145.064 370.788,148.654 346.993,172.449 
		357.326,182.78 386.007,154.099 401.678,169.772 	"/>
	<polygon style="fill:#DECCBC;" points="301.069,270.379 271.475,240.785 289.463,222.799 303.386,236.721 333.079,207.028 
		348.75,222.699 	"/>
	<polygon style="fill:#DECCBC;" points="260.591,285.222 243.163,302.65 252.107,319.342 233.752,337.698 214.454,297.807 
		230.494,281.767 233.844,287.992 245.741,276.095 239.587,272.674 255.783,256.479 295.631,275.818 277.375,294.075 	"/>
	<path style="fill:#DECCBC;" d="M209.221,363.885c-2.394,2.394-5.043,4.674-7.932,6.827c-2.889,2.153-5.906,4.136-9.079,5.949
		c-3.166,1.82-6.359,3.413-9.595,4.794c-3.222,1.381-6.402,2.479-9.539,3.279l-8.023-23.518c3.505-0.8,6.947-1.849,10.332-3.137
		c2.889-1.049,5.942-2.444,9.171-4.199c3.229-1.743,6.14-3.916,8.717-6.494c1.969-1.969,3.074-3.597,3.321-4.893
		c0.24-1.289-0.064-2.359-0.927-3.222c-0.92-0.92-2.089-1.324-3.498-1.204c-1.416,0.127-3.046,0.623-4.893,1.48
		c-1.842,0.864-3.888,1.919-6.126,3.18c-2.252,1.261-4.688,2.535-7.337,3.824c-3.874,1.905-7.422,3.343-10.651,4.291
		c-0.8,0.233-1.579,0.432-2.352,0.609l40.62-40.62c0.892,0.226,1.764,0.517,2.634,0.864c3.074,1.232,6.147,3.385,9.221,6.459
		c3.93,3.93,6.515,7.96,7.741,12.074c1.232,4.121,1.466,8.165,0.694,12.124c-0.772,3.973-2.287,7.797-4.561,11.486
		C214.879,357.519,212.231,360.876,209.221,363.885z"/>
</g>
<g>
</g>
<g>
</g>
<g>
</g>
<g>
</g>
<g>
</g>
<g>
</g>
<g>
</g>
<g>
</g>
<g>
</g>
<g>
</g>
<g>
</g>
<g>
</g>
<g>
</g>
<g>
</g>
<g>
</g>
</svg>
