<?xml version="1.0" encoding="iso-8859-1"?>
<!-- Generator: Adobe Illustrator 19.0.0, SVG Export Plug-In . SVG Version: 6.00 Build 0)  -->
<svg version="1.1" id="Layer_1" xmlns="http://www.w3.org/2000/svg" xmlns:xlink="http://www.w3.org/1999/xlink" x="0px" y="0px"
	 viewBox="0 0 512 512" style="enable-background:new 0 0 512 512;" xml:space="preserve">
<g>
	<polygon style="fill:#FB0023;" points="0,172.522 0,272.696 66.783,272.696 66.783,306.087 0,306.087 0,339.478 100.174,339.478 
		100.174,239.304 33.391,239.304 33.391,205.913 100.174,205.913 100.174,172.522 	"/>
	<rect x="178.087" y="172.522" style="fill:#FB0023;" width="44.522" height="33.391"/>
	<polygon style="fill:#FB0023;" points="222.609,261.565 178.087,261.565 178.087,205.913 144.696,205.913 144.696,339.478 
		178.087,339.478 178.087,294.957 222.609,294.957 222.609,339.478 256,339.478 256,205.913 222.609,205.913 	"/>
	<polygon style="fill:#FB0023;" points="322.783,172.522 289.391,172.522 289.391,339.478 378.435,339.478 378.435,306.087 
		322.783,306.087 	"/>
	<polygon style="fill:#FB0023;" points="512,205.913 512,172.522 411.826,172.522 411.826,339.478 512,339.478 512,306.087 
		445.217,306.087 445.217,272.696 512,272.696 512,239.304 445.217,239.304 445.217,205.913 	"/>
</g>
<g>
</g>
<g>
</g>
<g>
</g>
<g>
</g>
<g>
</g>
<g>
</g>
<g>
</g>
<g>
</g>
<g>
</g>
<g>
</g>
<g>
</g>
<g>
</g>
<g>
</g>
<g>
</g>
<g>
</g>
</svg>
