<?xml version="1.0"?>
<svg xmlns="http://www.w3.org/2000/svg" xmlns:xlink="http://www.w3.org/1999/xlink" version="1.1" id="Layer_1" x="0px" y="0px" viewBox="0 0 512 512" style="enable-background:new 0 0 512 512;" xml:space="preserve" width="512px" height="512px" class=""><g><circle style="fill:#FFBA00" cx="256" cy="256" r="256" data-original="#273B7A" class="" data-old_color="#FFB200"/><path style="fill:#FFAA00" d="M310.391,506.065c105.594-23.106,186.792-111.375,199.33-220.543l-124.318-124.32l-82.958,89.524  l-21.304-21.304L119.639,315.31L310.391,506.065z" data-original="#121149" class="" data-old_color="#FFA300"/><path style="fill:#FF314F;" d="M365.323,154.357H146.675c-18.168,0-32.897,14.729-32.897,32.897v109.325  c0,18.17,14.729,32.897,32.897,32.897h23.992v31.363c0,9.419,11.388,14.138,18.049,7.477l38.84-38.84h137.769  c18.17,0,32.897-14.729,32.897-32.897V187.254C398.222,169.086,383.493,154.357,365.323,154.357z" data-original="#FF314F" class=""/><path style="fill:#FF003A" d="M365.323,154.357H255.424v175.12h109.899c18.17,0,32.897-14.729,32.897-32.897V187.254  C398.222,169.086,383.493,154.357,365.323,154.357z" data-original="#A30F44" class="active-path" data-old_color="#FF0042"/><g>
	<path style="fill:#FFFFFF" d="M178.424,279.273h-17.239c-3.332,0-6.034-2.701-6.034-6.034s2.701-6.034,6.034-6.034h17.239   c6.178,0,11.205-5.027,11.205-11.205c0-6.178-5.027-11.205-11.205-11.205c-12.833,0-23.273-10.44-23.273-23.273   s10.44-23.273,23.273-23.273h17.239c3.332,0,6.034,2.701,6.034,6.034s-2.701,6.034-6.034,6.034h-17.239   c-6.178,0-11.205,5.027-11.205,11.205s5.027,11.205,11.205,11.205c12.833,0,23.273,10.44,23.273,23.273   C201.697,268.833,191.257,279.273,178.424,279.273z" data-original="#FFFFFF" class=""/>
	<path style="fill:#FFFFFF" d="M247.38,279.273c-3.332,0-6.034-2.701-6.034-6.034v-51.717c0-6.178-5.027-11.205-11.205-11.205   c-6.178,0-11.205,5.027-11.205,11.205v51.717c0,3.332-2.701,6.034-6.034,6.034c-3.332,0-6.034-2.701-6.034-6.034v-51.717   c0-12.833,10.44-23.273,23.273-23.273s23.273,10.44,23.273,23.273v51.717C253.414,276.571,250.713,279.273,247.38,279.273z" data-original="#FFFFFF" class=""/>
	<path style="fill:#FFFFFF" d="M247.38,244.795h-34.478c-3.332,0-6.034-2.701-6.034-6.034s2.701-6.034,6.034-6.034h34.478   c3.332,0,6.034,2.701,6.034,6.034S250.713,244.795,247.38,244.795z" data-original="#FFFFFF" class=""/>
	<path style="fill:#FFFFFF" d="M299.098,279.273h-22.519c-9.921,0-17.992-8.071-17.992-17.992v-56.998   c0-3.332,2.701-6.034,6.034-6.034c3.332,0,6.034,2.701,6.034,6.034v56.998c0,3.267,2.658,5.925,5.925,5.925h22.519   c3.332,0,6.034,2.701,6.034,6.034S302.43,279.273,299.098,279.273z" data-original="#FFFFFF" class=""/>
	<path style="fill:#FFFFFF" d="M350.815,279.273h-21.673c-10.387,0-18.839-8.451-18.839-18.839v-43.348   c0-10.387,8.451-18.839,18.839-18.839h21.673c3.332,0,6.034,2.701,6.034,6.034s-2.701,6.034-6.034,6.034h-21.673   c-3.734,0-6.771,3.038-6.771,6.771v43.348c0,3.734,3.038,6.771,6.771,6.771h21.673c3.332,0,6.034,2.701,6.034,6.034   S354.147,279.273,350.815,279.273z" data-original="#FFFFFF" class=""/>
	<path style="fill:#FFFFFF" d="M350.815,244.795h-34.478c-3.332,0-6.034-2.701-6.034-6.034s2.701-6.034,6.034-6.034h34.478   c3.332,0,6.034,2.701,6.034,6.034S354.147,244.795,350.815,244.795z" data-original="#FFFFFF" class=""/>
</g></g> </svg>
